<?xml version="1.0" encoding="utf-8"?>
<!-- Generator: Adobe Illustrator 15.0.0, SVG Export Plug-In . SVG Version: 6.00 Build 0)  -->
<!DOCTYPE svg PUBLIC "-//W3C//DTD SVG 1.1//EN" "http://www.w3.org/Graphics/SVG/1.1/DTD/svg11.dtd">
<svg version="1.1" id="Layer_1" xmlns="http://www.w3.org/2000/svg" xmlns:xlink="http://www.w3.org/1999/xlink" x="0px" y="0px"
	 width="165px" height="50px" viewBox="0 0 165 50" enable-background="new 0 0 165 50" xml:space="preserve">
<g>
	<g>
		<path fill="#312783" d="M33.668,36.15c0.289-3.842,2.306-7.879,5.861-10.761c2.114-1.825,4.517-2.882,6.823-3.362
			c-3.555-0.385-7.494,0.864-10.858,3.556c-3.459,2.881-5.478,6.819-5.861,10.567H33.668L33.668,36.15z"/>
		<path fill="#E30613" d="M27.283,35.982C27.367,35.48,27.367,35.898,27.283,35.982l-16.195-7.635h19.467L16.794,5.356
			l21.397,16.615l3.524-17.874l4.531,15.943c0.335-0.083-0.335,0,0,0l3.356-17.202H14.696L8.235,36.066h18.963L27.283,35.982
			L27.283,35.982z"/>
		<path fill="#E30613" d="M54.938,28.823h14.603v-3.76H59.429V4.218h-4.491V28.823L54.938,28.823z M77.227,10.644
			c-5.367,0-9.201,3.578-9.201,9.419c0,5.73,3.907,9.162,8.909,9.162c4.526,0,9.127-2.92,9.127-9.456
			C86.063,14.367,82.519,10.644,77.227,10.644L77.227,10.644z M77.117,13.893c3.065,0,4.306,3.212,4.306,5.986
			c0,3.615-1.788,6.098-4.344,6.098c-2.701,0-4.417-2.593-4.417-6.023C72.663,16.995,73.94,13.893,77.117,13.893L77.117,13.893z
			 M86.555,28.823h4.488V18.347c0-0.512,0.075-1.059,0.221-1.425c0.475-1.35,1.717-2.628,3.504-2.628
			c2.446,0,3.396,1.936,3.396,4.491v10.04h4.491v-10.55c0-5.622-3.213-7.629-6.315-7.629c-2.957,0-4.894,1.679-5.694,3.065h-0.11
			l-0.218-2.665h-3.907c0.073,1.533,0.147,3.249,0.147,5.295v12.482H86.555z M120.342,16.155c0-2.446,0.072-3.906,0.146-5.111
			h-3.905l-0.183,2.373h-0.075c-0.841-1.46-2.407-2.773-5.146-2.773c-4.272,0-8.068,3.541-8.068,9.382
			c0,5.038,3.139,8.687,7.556,8.687c2.373,0,4.16-1.059,5.185-2.628h0.073v1.534c0,3.833-2.192,5.365-5.11,5.365
			c-2.153,0-4.053-0.693-5.185-1.353l-0.983,3.396c1.53,0.912,3.94,1.425,6.203,1.425c2.446,0,5.039-0.513,6.863-2.153
			c1.861-1.68,2.629-4.346,2.629-8.068V16.155L120.342,16.155z M115.852,21.047c0,0.512-0.035,1.131-0.183,1.569
			c-0.512,1.643-1.974,2.739-3.651,2.739c-2.811,0-4.343-2.447-4.343-5.477c0-3.613,1.859-5.804,4.38-5.804
			c1.899,0,3.176,1.241,3.651,2.883c0.11,0.366,0.146,0.768,0.146,1.205V21.047L115.852,21.047z"/>
		<path fill="#312783" d="M127.329,28.816V14.394h6.062v14.422h4.49v-17.78h-10.587v-0.731c0-2.336,1.022-4.234,4.125-4.234
			c1.681,0,3.104,0.475,3.907,0.948l1.021-3.394c-1.021-0.657-3.142-1.132-4.929-1.132c-5.257,0-8.578,2.92-8.578,7.703v0.84h-2.409
			v3.357h2.409v14.421h4.488V28.816z M139.542,28.816h4.49V18.337c0-0.511,0.073-1.06,0.222-1.423
			c0.473-1.352,1.715-2.628,3.503-2.628c2.445,0,3.396,1.934,3.396,4.49v10.041h4.49V18.263c0-5.621-3.213-7.629-6.315-7.629
			c-2.957,0-4.892,1.679-5.694,3.068h-0.111l-0.217-2.665H139.4c0.072,1.533,0.144,3.25,0.144,5.293v12.486H139.542z"/>
	</g>
	<g>
		<path fill="#2D2D2D" d="M12.287,43.686l0.71,0.219c-0.157,0.729-0.431,1.275-0.823,1.637c-0.392,0.359-0.869,0.538-1.431,0.538
			c-0.495,0-0.917-0.12-1.268-0.362c-0.351-0.24-0.637-0.628-0.861-1.16c-0.223-0.533-0.335-1.162-0.335-1.889
			c0-0.716,0.112-1.322,0.335-1.818c0.224-0.496,0.527-0.869,0.909-1.123s0.808-0.381,1.28-0.381c0.515,0,0.958,0.16,1.329,0.479
			c0.37,0.321,0.629,0.791,0.777,1.411l-0.692,0.199c-0.237-0.902-0.712-1.354-1.426-1.354c-0.356,0-0.665,0.09-0.925,0.273
			c-0.261,0.182-0.469,0.463-0.625,0.851c-0.156,0.385-0.233,0.871-0.233,1.461c0,0.894,0.157,1.562,0.471,2.006
			c0.313,0.446,0.73,0.668,1.251,0.668c0.385,0,0.717-0.136,0.996-0.409C12.004,44.657,12.192,44.241,12.287,43.686z"/>
		<path fill="#2D2D2D" d="M18.349,45.386c-0.219,0.229-0.447,0.399-0.684,0.517c-0.237,0.113-0.482,0.173-0.737,0.173
			c-0.402,0-0.724-0.122-0.963-0.364c-0.24-0.243-0.36-0.568-0.36-0.98c0-0.271,0.057-0.514,0.169-0.725
			c0.112-0.209,0.266-0.374,0.461-0.492c0.195-0.117,0.491-0.205,0.887-0.262c0.533-0.079,0.924-0.171,1.172-0.279l0.004-0.203
			c0-0.324-0.058-0.551-0.173-0.681c-0.163-0.188-0.413-0.284-0.75-0.284c-0.304,0-0.532,0.063-0.683,0.189
			c-0.151,0.127-0.262,0.363-0.333,0.713L15.717,42.6c0.092-0.508,0.277-0.877,0.557-1.105c0.28-0.23,0.681-0.346,1.202-0.346
			c0.405,0,0.723,0.074,0.954,0.229c0.231,0.15,0.376,0.341,0.437,0.564c0.061,0.227,0.091,0.555,0.091,0.985v1.065
			c0,0.746,0.014,1.216,0.042,1.408c0.028,0.193,0.084,0.384,0.167,0.566h-0.684C18.414,45.807,18.37,45.611,18.349,45.386z
			 M18.296,43.602c-0.24,0.119-0.597,0.219-1.07,0.303c-0.276,0.047-0.468,0.102-0.577,0.162c-0.109,0.062-0.195,0.146-0.255,0.257
			c-0.061,0.11-0.091,0.239-0.091,0.385c0,0.226,0.069,0.403,0.208,0.54c0.139,0.135,0.331,0.2,0.578,0.2
			c0.233,0,0.445-0.06,0.636-0.183c0.191-0.119,0.334-0.281,0.429-0.484c0.094-0.203,0.142-0.498,0.142-0.887V43.602z"/>
		<path fill="#2D2D2D" d="M22.001,45.968v-6.507h0.653v6.507H22.001z"/>
		<path fill="#2D2D2D" d="M28.254,44.24l0.644,0.103c-0.074,0.563-0.26,0.992-0.557,1.288c-0.298,0.295-0.655,0.443-1.072,0.443
			c-0.506,0-0.923-0.208-1.25-0.625c-0.327-0.415-0.49-1.028-0.49-1.844c0-0.818,0.165-1.435,0.495-1.845
			c0.33-0.409,0.754-0.614,1.271-0.614c0.399,0,0.736,0.125,1.01,0.373c0.273,0.248,0.449,0.621,0.526,1.117l-0.635,0.117
			c-0.063-0.318-0.171-0.557-0.324-0.714c-0.154-0.158-0.34-0.237-0.556-0.237c-0.323,0-0.589,0.145-0.8,0.43
			c-0.212,0.285-0.318,0.738-0.318,1.359c0,0.643,0.101,1.106,0.304,1.395c0.203,0.287,0.462,0.432,0.779,0.432
			c0.249,0,0.461-0.096,0.637-0.288C28.096,44.939,28.208,44.645,28.254,44.24z"/>
		<path fill="#2D2D2D" d="M34.028,45.968v-0.692c-0.15,0.268-0.328,0.467-0.533,0.6c-0.204,0.134-0.434,0.2-0.692,0.2
			c-0.305,0-0.565-0.082-0.781-0.247c-0.216-0.164-0.361-0.37-0.433-0.622c-0.072-0.252-0.108-0.597-0.108-1.031v-2.92h0.653v2.613
			c0,0.485,0.024,0.812,0.073,0.976s0.14,0.297,0.271,0.395c0.131,0.101,0.282,0.148,0.451,0.148c0.313,0,0.571-0.128,0.772-0.386
			c0.171-0.222,0.257-0.628,0.257-1.222v-2.524h0.657v4.714L34.028,45.968L34.028,45.968z"/>
		<path fill="#2D2D2D" d="M37.668,45.968v-6.507h0.652v6.507H37.668z"/>
		<path fill="#2D2D2D" d="M43.907,45.386c-0.219,0.229-0.447,0.399-0.684,0.517c-0.237,0.113-0.482,0.173-0.737,0.173
			c-0.402,0-0.724-0.122-0.963-0.364c-0.24-0.243-0.36-0.568-0.36-0.98c0-0.271,0.057-0.514,0.168-0.725
			c0.113-0.209,0.267-0.374,0.462-0.492c0.194-0.117,0.491-0.205,0.887-0.262c0.533-0.079,0.924-0.171,1.171-0.279l0.005-0.203
			c0-0.324-0.058-0.551-0.173-0.681c-0.163-0.188-0.413-0.284-0.75-0.284c-0.305,0-0.533,0.063-0.683,0.189
			c-0.151,0.127-0.263,0.363-0.333,0.713L41.275,42.6c0.092-0.508,0.277-0.877,0.557-1.105c0.279-0.23,0.68-0.346,1.201-0.346
			c0.405,0,0.723,0.074,0.954,0.229c0.231,0.15,0.377,0.341,0.438,0.564c0.061,0.227,0.091,0.555,0.091,0.985v1.065
			c0,0.746,0.014,1.216,0.042,1.408c0.028,0.193,0.083,0.384,0.167,0.566H44.04C43.972,45.807,43.928,45.611,43.907,45.386z
			 M43.854,43.602c-0.239,0.119-0.596,0.219-1.069,0.303c-0.276,0.047-0.468,0.102-0.577,0.162c-0.11,0.062-0.195,0.146-0.256,0.257
			c-0.06,0.11-0.09,0.239-0.09,0.385c0,0.226,0.069,0.403,0.208,0.54c0.14,0.135,0.332,0.2,0.578,0.2
			c0.233,0,0.446-0.06,0.637-0.183c0.191-0.119,0.334-0.281,0.429-0.484c0.094-0.203,0.141-0.498,0.141-0.887L43.854,43.602
			L43.854,43.602z"/>
		<path fill="#2D2D2D" d="M49.038,45.253l0.088,0.706c-0.181,0.047-0.343,0.07-0.487,0.07c-0.228,0-0.412-0.045-0.551-0.135
			c-0.139-0.093-0.234-0.215-0.286-0.371c-0.052-0.157-0.078-0.469-0.078-0.938v-2.712h-0.479v-0.621h0.479v-1.168l0.652-0.479
			v1.647h0.662v0.621h-0.662v2.757c0,0.254,0.019,0.418,0.058,0.492c0.057,0.105,0.161,0.159,0.315,0.159
			C48.823,45.283,48.919,45.273,49.038,45.253z"/>
		<path fill="#2D2D2D" d="M51.7,40.379v-0.918h0.653v0.918H51.7z M51.7,45.968v-4.714h0.653v4.714H51.7z"/>
		<path fill="#2D2D2D" d="M55.401,45.968v-4.714h0.59v0.666c0.142-0.26,0.316-0.452,0.521-0.58c0.206-0.129,0.441-0.191,0.707-0.191
			c0.207,0,0.398,0.039,0.574,0.121s0.318,0.188,0.426,0.319c0.107,0.132,0.188,0.304,0.241,0.513
			c0.053,0.211,0.08,0.532,0.08,0.967v2.899h-0.653v-2.87c0-0.347-0.03-0.601-0.089-0.761s-0.151-0.282-0.278-0.371
			c-0.125-0.087-0.271-0.131-0.437-0.131c-0.314,0-0.564,0.116-0.75,0.351c-0.186,0.235-0.28,0.637-0.28,1.203v2.579H55.401z"/>
		<path fill="#2D2D2D" d="M61.464,46.357l0.639,0.115c0.029,0.254,0.118,0.441,0.266,0.565c0.148,0.122,0.354,0.185,0.617,0.185
			c0.287,0,0.516-0.068,0.686-0.205c0.17-0.139,0.287-0.344,0.349-0.615c0.039-0.166,0.057-0.516,0.057-1.049
			c-0.142,0.203-0.302,0.355-0.479,0.459c-0.177,0.104-0.375,0.154-0.59,0.154c-0.462,0-0.845-0.195-1.15-0.586
			c-0.349-0.449-0.523-1.053-0.523-1.808c0-0.507,0.077-0.947,0.23-1.326c0.154-0.378,0.356-0.657,0.606-0.834
			c0.25-0.179,0.53-0.267,0.841-0.267c0.228,0,0.436,0.057,0.624,0.166c0.188,0.111,0.354,0.278,0.499,0.504v-0.563h0.604v4.074
			c0,0.725-0.06,1.241-0.178,1.552c-0.119,0.309-0.312,0.553-0.581,0.732c-0.27,0.18-0.594,0.269-0.972,0.269
			c-0.5,0-0.885-0.134-1.154-0.403C61.585,47.208,61.455,46.835,61.464,46.357z M62.005,43.525c0,0.621,0.103,1.072,0.308,1.356
			c0.205,0.286,0.455,0.429,0.751,0.429s0.549-0.141,0.756-0.42c0.208-0.277,0.312-0.723,0.312-1.328
			c0-0.595-0.107-1.037-0.32-1.326c-0.214-0.287-0.473-0.434-0.779-0.434c-0.272,0-0.512,0.146-0.718,0.434
			C62.108,42.525,62.005,42.957,62.005,43.525z"/>
		<path fill="#2D2D2D" d="M73.358,45.253l0.088,0.706c-0.18,0.047-0.342,0.07-0.487,0.07c-0.228,0-0.412-0.045-0.551-0.135
			c-0.14-0.093-0.235-0.215-0.287-0.371c-0.052-0.157-0.077-0.469-0.077-0.938v-2.712h-0.479v-0.621h0.479v-1.168l0.652-0.479v1.647
			h0.662v0.621h-0.662v2.757c0,0.254,0.019,0.418,0.058,0.492c0.056,0.105,0.162,0.159,0.315,0.159
			C73.144,45.283,73.24,45.273,73.358,45.253z"/>
		<path fill="#2D2D2D" d="M76.02,45.968v-6.507h0.653v2.335c0.154-0.217,0.328-0.379,0.521-0.485
			c0.194-0.108,0.408-0.162,0.642-0.162c0.411,0,0.736,0.131,0.974,0.393c0.239,0.262,0.358,0.741,0.358,1.439v2.987h-0.653V42.98
			c0-0.41-0.073-0.701-0.218-0.879c-0.145-0.179-0.345-0.268-0.6-0.268c-0.284,0-0.525,0.114-0.725,0.342
			c-0.2,0.229-0.3,0.633-0.3,1.211v2.58L76.02,45.968L76.02,45.968z"/>
		<path fill="#2D2D2D" d="M84.854,44.449l0.674,0.103c-0.112,0.503-0.314,0.884-0.609,1.14c-0.294,0.256-0.659,0.384-1.094,0.384
			c-0.549,0-0.991-0.208-1.33-0.625c-0.338-0.415-0.508-1.015-0.508-1.8c0-0.813,0.172-1.435,0.512-1.86
			c0.342-0.429,0.775-0.642,1.299-0.642c0.499,0,0.917,0.209,1.252,0.629c0.335,0.421,0.502,1.029,0.502,1.824l-0.005,0.213H82.66
			c0.027,0.529,0.149,0.931,0.369,1.199c0.219,0.27,0.484,0.404,0.799,0.404C84.318,45.418,84.66,45.094,84.854,44.449z
			 M82.7,43.157h2.155c-0.028-0.408-0.115-0.714-0.26-0.914c-0.211-0.293-0.479-0.438-0.805-0.438c-0.293,0-0.544,0.121-0.75,0.366
			C82.834,42.414,82.722,42.743,82.7,43.157z"/>
		<path fill="#2D2D2D" d="M92.748,45.968v-6.507h0.705v6.507H92.748z"/>
		<path fill="#2D2D2D" d="M96.639,45.968v-4.714h0.592v0.666c0.142-0.26,0.314-0.452,0.521-0.58c0.204-0.129,0.44-0.191,0.706-0.191
			c0.207,0,0.396,0.039,0.572,0.121c0.177,0.082,0.318,0.188,0.427,0.319c0.106,0.132,0.188,0.304,0.241,0.513
			c0.054,0.211,0.078,0.532,0.078,0.967v2.899h-0.65v-2.87c0-0.347-0.029-0.601-0.089-0.761s-0.152-0.282-0.278-0.371
			c-0.125-0.087-0.271-0.131-0.438-0.131c-0.313,0-0.563,0.116-0.75,0.351c-0.188,0.234-0.279,0.637-0.279,1.203v2.579H96.639z"/>
		<path fill="#2D2D2D" d="M105.361,44.24l0.644,0.103c-0.073,0.563-0.26,0.992-0.558,1.288c-0.297,0.295-0.655,0.443-1.072,0.443
			c-0.505,0-0.923-0.208-1.249-0.625c-0.327-0.415-0.489-1.028-0.489-1.844c0-0.818,0.163-1.435,0.493-1.845
			c0.331-0.409,0.755-0.614,1.272-0.614c0.397,0,0.734,0.125,1.011,0.373c0.272,0.248,0.446,0.621,0.524,1.117l-0.636,0.117
			c-0.063-0.318-0.17-0.557-0.323-0.714c-0.152-0.158-0.338-0.237-0.556-0.237c-0.321,0-0.589,0.145-0.801,0.43
			c-0.211,0.285-0.317,0.738-0.317,1.359c0,0.643,0.103,1.106,0.305,1.395c0.203,0.287,0.461,0.432,0.779,0.432
			c0.248,0,0.461-0.096,0.637-0.288C105.202,44.939,105.313,44.645,105.361,44.24z"/>
		<path fill="#2D2D2D" d="M111.122,45.386c-0.22,0.229-0.447,0.399-0.685,0.517c-0.237,0.113-0.482,0.173-0.735,0.173
			c-0.403,0-0.726-0.122-0.964-0.364c-0.24-0.243-0.36-0.568-0.36-0.98c0-0.271,0.058-0.514,0.168-0.725
			c0.114-0.209,0.267-0.374,0.463-0.492c0.195-0.117,0.491-0.205,0.888-0.262c0.533-0.079,0.924-0.171,1.172-0.279l0.006-0.203
			c0-0.324-0.059-0.551-0.174-0.681c-0.164-0.188-0.412-0.284-0.752-0.284c-0.305,0-0.532,0.063-0.683,0.189
			c-0.149,0.127-0.262,0.363-0.334,0.713l-0.644-0.105c0.093-0.509,0.277-0.877,0.558-1.106c0.281-0.229,0.683-0.347,1.201-0.347
			c0.405,0,0.724,0.076,0.954,0.229c0.23,0.151,0.378,0.341,0.438,0.565c0.062,0.226,0.092,0.554,0.092,0.984v1.065
			c0,0.746,0.014,1.216,0.043,1.409c0.026,0.193,0.082,0.383,0.166,0.565h-0.685C111.188,45.807,111.143,45.611,111.122,45.386z
			 M111.068,43.602c-0.239,0.119-0.598,0.219-1.069,0.303c-0.276,0.047-0.47,0.102-0.577,0.162
			c-0.109,0.062-0.195,0.146-0.255,0.257c-0.062,0.11-0.093,0.239-0.093,0.385c0,0.226,0.07,0.403,0.209,0.54
			c0.139,0.135,0.33,0.2,0.578,0.2c0.231,0,0.445-0.06,0.637-0.183c0.189-0.119,0.334-0.281,0.428-0.484
			c0.096-0.203,0.143-0.498,0.143-0.887V43.602L111.068,43.602z"/>
		<path fill="#2D2D2D" d="M114.773,45.968v-6.507h0.651v6.507H114.773z"/>
		<path fill="#2D2D2D" d="M121.025,44.24l0.646,0.103c-0.075,0.563-0.26,0.992-0.56,1.288c-0.297,0.295-0.652,0.443-1.07,0.443
			c-0.506,0-0.923-0.208-1.249-0.625c-0.327-0.415-0.49-1.028-0.49-1.844c0-0.818,0.165-1.435,0.495-1.845
			c0.329-0.409,0.753-0.614,1.271-0.614c0.398,0,0.736,0.125,1.01,0.373s0.449,0.621,0.527,1.117l-0.637,0.117
			c-0.063-0.318-0.17-0.557-0.322-0.714c-0.155-0.158-0.342-0.237-0.557-0.237c-0.322,0-0.59,0.145-0.801,0.43
			c-0.212,0.285-0.316,0.738-0.316,1.359c0,0.643,0.101,1.106,0.305,1.395c0.201,0.287,0.462,0.432,0.777,0.432
			c0.248,0,0.461-0.096,0.637-0.288C120.867,44.939,120.979,44.645,121.025,44.24z"/>
		<path fill="#2D2D2D" d="M126.801,45.968v-0.692c-0.15,0.268-0.328,0.467-0.533,0.6c-0.203,0.134-0.434,0.2-0.691,0.2
			c-0.305,0-0.564-0.082-0.78-0.247c-0.217-0.164-0.36-0.37-0.433-0.622s-0.108-0.597-0.108-1.031v-2.92h0.651v2.613
			c0,0.485,0.023,0.812,0.072,0.976s0.141,0.297,0.271,0.395c0.131,0.101,0.281,0.148,0.45,0.148c0.313,0,0.571-0.128,0.771-0.386
			c0.174-0.222,0.258-0.628,0.258-1.222v-2.524h0.658v4.714L126.801,45.968L126.801,45.968z"/>
		<path fill="#2D2D2D" d="M130.441,45.968v-6.507h0.65v6.507H130.441z"/>
		<path fill="#2D2D2D" d="M136.68,45.386c-0.219,0.229-0.445,0.399-0.684,0.517c-0.237,0.113-0.482,0.173-0.736,0.173
			c-0.402,0-0.725-0.122-0.964-0.364c-0.239-0.243-0.358-0.568-0.358-0.98c0-0.271,0.056-0.514,0.168-0.725
			c0.113-0.209,0.267-0.374,0.463-0.492c0.193-0.117,0.49-0.205,0.887-0.262c0.533-0.079,0.925-0.171,1.171-0.279l0.007-0.203
			c0-0.324-0.06-0.551-0.175-0.681c-0.161-0.188-0.411-0.284-0.75-0.284c-0.304,0-0.532,0.063-0.683,0.189
			c-0.151,0.127-0.264,0.363-0.334,0.713l-0.644-0.105c0.093-0.509,0.276-0.877,0.556-1.106c0.28-0.229,0.682-0.347,1.203-0.347
			c0.404,0,0.724,0.076,0.953,0.229c0.23,0.151,0.377,0.341,0.438,0.565c0.061,0.226,0.091,0.554,0.091,0.984v1.065
			c0,0.746,0.014,1.216,0.042,1.409s0.084,0.383,0.167,0.565h-0.686C136.745,45.807,136.7,45.611,136.68,45.386z M136.625,43.602
			c-0.238,0.119-0.596,0.219-1.068,0.303c-0.274,0.047-0.467,0.102-0.576,0.162c-0.109,0.062-0.194,0.146-0.256,0.257
			c-0.062,0.11-0.091,0.239-0.091,0.385c0,0.226,0.069,0.403,0.209,0.54c0.14,0.135,0.33,0.2,0.577,0.2
			c0.232,0,0.445-0.06,0.637-0.183c0.189-0.119,0.334-0.281,0.43-0.484c0.094-0.203,0.14-0.498,0.14-0.887L136.625,43.602
			L136.625,43.602z"/>
		<path fill="#2D2D2D" d="M140.953,45.968h-0.607v-6.507h0.657v2.32c0.138-0.213,0.296-0.371,0.472-0.477
			c0.178-0.105,0.373-0.158,0.588-0.158c0.304,0,0.578,0.09,0.824,0.271c0.246,0.18,0.444,0.455,0.592,0.82
			c0.148,0.367,0.224,0.813,0.224,1.336c0,0.8-0.168,1.414-0.502,1.85c-0.335,0.434-0.728,0.65-1.175,0.65
			c-0.227,0-0.428-0.061-0.607-0.176c-0.178-0.116-0.334-0.291-0.464-0.521L140.953,45.968L140.953,45.968z M140.943,43.574
			c0,0.488,0.043,0.854,0.133,1.098c0.09,0.242,0.215,0.428,0.38,0.555c0.162,0.129,0.343,0.191,0.542,0.191
			c0.27,0,0.511-0.152,0.72-0.456c0.208-0.303,0.313-0.756,0.313-1.36c0-0.619-0.1-1.072-0.303-1.362
			c-0.201-0.289-0.449-0.435-0.744-0.435c-0.27,0-0.512,0.151-0.723,0.454C141.049,42.563,140.943,43.002,140.943,43.574z"/>
		<path fill="#2D2D2D" d="M146.521,45.968v-6.507h0.653v6.507H146.521z"/>
		<path fill="#2D2D2D" d="M152.889,44.449l0.674,0.103c-0.112,0.503-0.314,0.884-0.609,1.14c-0.294,0.256-0.66,0.384-1.096,0.384
			c-0.547,0-0.989-0.208-1.328-0.625c-0.34-0.415-0.51-1.015-0.51-1.8c0-0.813,0.172-1.435,0.514-1.86
			c0.342-0.429,0.775-0.642,1.299-0.642c0.499,0,0.917,0.209,1.252,0.629c0.334,0.421,0.501,1.029,0.501,1.824l-0.004,0.213h-2.886
			c0.027,0.529,0.148,0.931,0.367,1.199c0.221,0.27,0.486,0.404,0.801,0.404C152.354,45.418,152.695,45.094,152.889,44.449z
			 M150.734,43.157h2.156c-0.029-0.408-0.117-0.714-0.261-0.914c-0.211-0.293-0.479-0.438-0.804-0.438
			c-0.293,0-0.544,0.121-0.75,0.366C150.869,42.414,150.757,42.743,150.734,43.157z"/>
	</g>
</g>
<g>
	<path fill="#727272" d="M153.975,3.875h-1.665V3.273h4.054v0.601h-1.674V8.75h-0.715V3.875z"/>
	<path fill="#727272" d="M161.591,6.345c-0.041-0.764-0.09-1.69-0.09-2.364h-0.016c-0.195,0.634-0.414,1.324-0.691,2.08
		l-0.967,2.657h-0.535l-0.895-2.608c-0.26-0.78-0.472-1.479-0.626-2.129h-0.017c-0.016,0.683-0.057,1.593-0.105,2.421l-0.146,2.348
		h-0.676l0.384-5.476h0.9l0.936,2.649c0.227,0.674,0.406,1.275,0.552,1.844h0.016c0.146-0.552,0.342-1.154,0.586-1.844l0.975-2.649
		h0.902l0.341,5.476h-0.699L161.591,6.345z"/>
</g>
</svg>
