<svg xmlns="http://www.w3.org/2000/svg" xmlns:xlink="http://www.w3.org/1999/xlink" version="1.1" id="Calque_1" x="0" y="0" width="229.28" height="155.25" viewBox="0 0 229.28 155.25" enable-background="new 0 0 229.283 155.249" xml:space="preserve">
  <path fill="#666666" d="M200.24 65.6c0 0.83-0.68 1.51-1.51 1.51H26.75c-0.83 0-1.51-0.68-1.51-1.51v-50.98c0-0.83 0.68-1.51 1.51-1.51h171.98c0.83 0 1.51 0.68 1.51 1.51V65.6z"/>
  <path opacity="0.1" fill="#FFFFFF" d="M113.24 13.11h86.4c0.83 0 1.6 1.39 1.6 2.22v51.34c0 0.83-0.77 0.44-1.6 0.44h-86.4"/>
  <rect x="8.24" y="9.11" fill="#666666" width="208" height="5"/>
  <polygon fill="#00CCCC" points="27.49 66.42 14.69 93.45 8.69 104.44 218.69 102.45 212.69 91.45 199.64 65.67 "/>
  <polygon fill="#66FFFF" points="25.69 65.77 20.85 80.11 207.29 80.11 200.66 66.19 "/>
  <path fill="#00CCCC" d="M103.24 65.04c0 5-4.06 9.06-9.06 9.06H46.3c-5 0-9.06-4.06-9.06-9.06v-5.88c0-5 4.06-9.06 9.06-9.06h47.88c5 0 9.06 4.06 9.06 9.06V65.04z"/>
  <path fill="#00CCCC" d="M189.24 65.04c0 5-4.06 9.06-9.06 9.06h-47.88c-5 0-9.06-4.06-9.06-9.06v-5.88c0-5 4.06-9.06 9.06-9.06h47.88c5 0 9.06 4.06 9.06 9.06V65.04z"/>
  <path fill="#666666" d="M218.24 139.39c0 0.56 0.23 0.71-0.77 0.71H12.67c-0.99 0-2.43-0.15-2.43-0.71v-34.95c0-0.56 1.44-2.34 2.44-2.34h204.8c0.99 0 0.77 1.77 0.77 2.34V139.39z"/>
  <path opacity="0.1" fill="#FFFFFF" d="M113.24 102.11h104.23c0.99 0 0.77 1.42 0.77 1.98v34.8c0 0.56 0.23 0.22-0.77 0.22H113.24"/>
  <rect x="8.24" y="92.11" fill="#666666" width="6" height="59"/>
  <rect x="214.24" y="91.11" fill="#666666" width="6" height="60"/>
</svg>
