<?xml version="1.0" encoding="utf-8"?>
<!-- Generator: Adobe Illustrator 16.0.0, SVG Export Plug-In . SVG Version: 6.00 Build 0)  -->
<!DOCTYPE svg PUBLIC "-//W3C//DTD SVG 1.1//EN" "http://www.w3.org/Graphics/SVG/1.1/DTD/svg11.dtd">
<svg version="1.1" id="Calque_1" xmlns="http://www.w3.org/2000/svg" xmlns:xlink="http://www.w3.org/1999/xlink" x="0px" y="0px"
	 width="319.785px" height="154.545px" viewBox="0 0 319.785 154.545" enable-background="new 0 0 319.785 154.545"
	 xml:space="preserve">
<g>
	<g>
		<g>
			<path fill-rule="evenodd" clip-rule="evenodd" fill="#5B9FA8" d="M56.357,45.025c10.621,0,19.283-7.602,19.283-16.92
				c0-9.319-8.662-16.92-19.283-16.92c-10.62,0-19.282,7.601-19.282,16.92C37.075,37.424,45.737,45.025,56.357,45.025z"/>
			<path fill-rule="evenodd" clip-rule="evenodd" fill="#5B9FA8" d="M91.683,45.025c10.62,0,19.282-7.602,19.282-16.92
				c0-9.319-8.662-16.92-19.282-16.92S72.4,18.786,72.4,28.105C72.4,37.424,81.062,45.025,91.683,45.025z"/>
			<path fill-rule="evenodd" clip-rule="evenodd" fill="#5B9FA8" d="M127.008,45.025c10.62,0,19.282-7.602,19.282-16.92
				c0-9.319-8.662-16.92-19.282-16.92c-10.621,0-19.282,7.601-19.282,16.92C107.726,37.424,116.387,45.025,127.008,45.025z"/>
			<path fill-rule="evenodd" clip-rule="evenodd" fill="#5B9FA8" d="M162.332,45.025c10.62,0,19.282-7.602,19.282-16.92
				c0-9.319-8.662-16.92-19.282-16.92s-19.282,7.601-19.282,16.92C143.05,37.424,151.712,45.025,162.332,45.025z"/>
			<path fill-rule="evenodd" clip-rule="evenodd" fill="#5B9FA8" d="M197.657,45.025c10.62,0,19.282-7.602,19.282-16.92
				c0-9.319-8.662-16.92-19.282-16.92s-19.282,7.601-19.282,16.92C178.375,37.424,187.037,45.025,197.657,45.025z"/>
			<path fill-rule="evenodd" clip-rule="evenodd" fill="#5B9FA8" d="M232.981,45.025c10.621,0,19.283-7.602,19.283-16.92
				c0-9.319-8.662-16.92-19.283-16.92c-10.62,0-19.282,7.601-19.282,16.92C213.699,37.424,222.361,45.025,232.981,45.025z"/>
			<path fill-rule="evenodd" clip-rule="evenodd" fill="#5B9FA8" d="M268.307,45.025c10.62,0,19.282-7.602,19.282-16.92
				c0-9.319-8.662-16.92-19.282-16.92c-10.621,0-19.282,7.601-19.282,16.92C249.024,37.424,257.686,45.025,268.307,45.025z"/>
		</g>
		<rect x="47.363" y="28.105" fill-rule="evenodd" clip-rule="evenodd" fill="#5B9FA8" width="229.938" height="86.581"/>
		<g>
			<ellipse fill-rule="evenodd" clip-rule="evenodd" fill="#5B9FA8" cx="44.88" cy="133.573" rx="5.278" ry="11.605"/>
			<path fill-rule="evenodd" clip-rule="evenodd" fill="#5B9FA8" d="M44.88,135.349c4.198,0,7.622-2.371,7.622-5.278
				s-3.424-5.278-7.622-5.278s-7.622,2.371-7.622,5.278S40.682,135.349,44.88,135.349z"/>
		</g>
		<path fill-rule="evenodd" clip-rule="evenodd" fill="#8CCCD4" d="M37.258,122.749V63.658
			c-0.543-10.506-3.205-19.605-14.192-20.512C16.28,42.587,9.701,38.568,10.09,26.15c0.354-11.354,18.517-20.768,32.448-10.673
			c12.483,9.047,14.853,25.632,14.931,39.943v67.328c0,1.123-0.92,2.043-2.043,2.043H39.301
			C38.178,124.792,37.258,123.874,37.258,122.749z"/>
		<path fill-rule="evenodd" clip-rule="evenodd" fill="#8CCCD4" d="M285.817,122.749V63.658
			c0.543-10.506,3.205-19.605,14.192-20.512c6.785-0.56,13.364-4.578,12.976-16.996c-0.354-11.354-18.517-20.768-32.448-10.673
			c-12.484,9.047-14.853,25.632-14.931,39.943v67.328c0,1.123,0.92,2.043,2.043,2.043h16.125
			C284.896,124.792,285.817,123.874,285.817,122.749z"/>
		<g>
			<ellipse fill-rule="evenodd" clip-rule="evenodd" fill="#5B9FA8" cx="278.195" cy="133.573" rx="5.278" ry="11.605"/>
			<path fill-rule="evenodd" clip-rule="evenodd" fill="#5B9FA8" d="M278.195,135.349c4.198,0,7.622-2.371,7.622-5.278
				s-3.424-5.278-7.622-5.278s-7.622,2.371-7.622,5.278S273.997,135.349,278.195,135.349z"/>
		</g>
		<rect x="37.258" y="104.581" fill-rule="evenodd" clip-rule="evenodd" fill="#8CCCD4" width="248.56" height="20.211"/>
		<g>
			<path fill-rule="evenodd" clip-rule="evenodd" fill="#E69D2A" d="M154.58,102.097c3.248,0,5.906-4.084,5.906-9.076v-10.59
				c0-26.387-100.857-26.641-100.857,0v10.59c0,4.991,2.658,9.076,5.907,9.076C86.813,102.097,133.302,102.097,154.58,102.097z"/>
			<path fill-rule="evenodd" clip-rule="evenodd" fill="#E69D2A" d="M257.54,102.097c3.249,0,5.906-4.084,5.906-9.076v-10.59
				c0-26.387-100.857-26.641-100.857,0v10.59c0,4.991,2.658,9.076,5.907,9.076C189.773,102.097,236.262,102.097,257.54,102.097z"/>
		</g>
	</g>
	<g>
		<path fill-rule="evenodd" clip-rule="evenodd" fill="#FFFFFF" d="M212.143,58.457c9.956,3.413,25.861-0.717,29.172,4.617
			c-0.299-1.535-0.15-2.181,0.687-2.768c-4.703-7.032-18.75-1.3-25.536-4.177C215.058,57.396,213.619,58.215,212.143,58.457z"/>
		<path fill-rule="evenodd" clip-rule="evenodd" fill="#FFFFFF" d="M265.389,38.883c-5.984,8.658-21.183,15.421-20.678,21.679
			c-1.353-1.306-2.244-0.571-2.71-0.255c-2.136-8.705,14.776-14.385,18.527-20.729C262.412,39.76,264.056,39.565,265.389,38.883z"/>
		
			<rect x="237.428" y="51.162" transform="matrix(-0.7095 0.7047 -0.7047 -0.7095 470.5958 -90.5066)" fill-rule="evenodd" clip-rule="evenodd" fill="#BA3902" width="33.048" height="1.153"/>
		<polygon fill-rule="evenodd" clip-rule="evenodd" fill="#BA3902" points="212.084,58.801 240.743,62.743 240.566,63.882 
			211.908,59.938 		"/>
		<path fill-rule="evenodd" clip-rule="evenodd" fill="#BA3902" d="M242.617,63.824c-0.472,0.27-1.446,0.276-2.051,0.058
			c-0.335-0.121-0.43-0.218-0.755-0.493l0.932-0.646c0.38,0.052,1.114,0.185,1.583-0.082l1.052-0.599l-0.759,1.761L242.617,63.824z"
			/>
	</g>
</g>
</svg>
