<?xml version="1.0" encoding="utf-8"?>
<!-- Generator: Adobe Illustrator 16.0.0, SVG Export Plug-In . SVG Version: 6.00 Build 0)  -->
<!DOCTYPE svg PUBLIC "-//W3C//DTD SVG 1.1//EN" "http://www.w3.org/Graphics/SVG/1.1/DTD/svg11.dtd">
<svg version="1.1" id="Calque_1" xmlns="http://www.w3.org/2000/svg" xmlns:xlink="http://www.w3.org/1999/xlink" x="0px" y="0px"
	 width="105.526px" height="150.276px" viewBox="0 0 105.526 150.276" enable-background="new 0 0 105.526 150.276"
	 xml:space="preserve">
<g>
	<g>
		<g>
			<path fill="#DDE8E8" d="M96.964,29.728c0-3.759-20.258-6.806-45.246-6.806c-24.982,0-45.24,3.047-45.24,6.806
				c0,0.549,0.445,1.083,1.262,1.594c4.771,2.989,22.648,5.212,43.979,5.212c21.336,0,39.213-2.224,43.986-5.212
				C96.521,30.811,96.964,30.277,96.964,29.728z"/>
			<path opacity="0.9" fill="#E9F4F3" d="M95.705,31.322c-4.773,2.989-22.65,5.212-43.986,5.212c-21.33,0-39.207-2.224-43.979-5.212
				L29.097,58.33l20.492,25.908v53.278h4.266V84.238L74.343,58.33L95.705,31.322z"/>
			<path opacity="0.9" fill="#E9F4F3" d="M77.609,139.755c0,3.938-11.264,7.132-25.162,7.132c-13.895,0-25.158-3.193-25.158-7.132
				c0-3.939,11.264-7.134,25.158-7.134C66.345,132.622,77.609,135.816,77.609,139.755z"/>
		</g>
		<g>
			<path fill="#555653" d="M102.189,5.877c0,0-0.74,0.973-2.033,2.676c-1.314,1.685-3.152,4.126-5.432,6.995
				c-2.283,2.866-4.9,6.246-7.787,9.801c-2.885,3.557-5.961,7.351-9.039,11.144c-3.121,3.756-6.244,7.513-9.172,11.034
				c-2.922,3.525-5.73,6.749-8.098,9.546c-2.369,2.794-4.408,5.07-5.805,6.688c-1.42,1.6-2.23,2.514-2.23,2.514
				s0.738-0.973,2.031-2.677c1.314-1.685,3.152-4.127,5.432-6.996c2.283-2.866,4.898-6.248,7.787-9.801
				c2.885-3.557,5.963-7.35,9.039-11.144c3.123-3.756,6.246-7.512,9.174-11.034c2.926-3.523,5.73-6.749,8.098-9.546
				c2.371-2.793,4.408-5.071,5.805-6.688C101.378,6.792,102.189,5.877,102.189,5.877z"/>
			<g>
				<g>
					<path fill="#A7BB6C" d="M47.425,61.922c-0.215,3.521,3.379,6.591,8.025,6.855c4.646,0.265,8.586-2.374,8.799-5.897
						c0.213-3.521-3.383-6.59-8.025-6.854C51.576,55.762,47.636,58.401,47.425,61.922z"/>
					<path fill="#B93838" d="M48.748,62.148c-0.066,1.127,0.705,2.09,1.725,2.148s1.902-0.809,1.973-1.938
						c0.066-1.127-0.705-2.089-1.725-2.148C49.699,60.152,48.818,61.019,48.748,62.148z"/>
				</g>
				<g>
					<path fill="#A7BB6C" d="M57.376,46.521c-0.217,3.572,3.43,6.687,8.145,6.956c4.713,0.268,8.711-2.41,8.926-5.982
						c0.217-3.573-3.43-6.688-8.145-6.956C61.589,40.27,57.591,42.947,57.376,46.521z"/>
					<path fill="#B93838" d="M58.722,46.75c-0.07,1.144,0.713,2.12,1.746,2.177c1.035,0.06,1.93-0.82,2-1.963
						c0.068-1.146-0.715-2.121-1.748-2.181C59.685,44.726,58.791,45.605,58.722,46.75z"/>
				</g>
			</g>
		</g>
		<g opacity="0.6">
			<path fill="#ECD2D2" d="M26.703,50.858l12.162,15.375L51.72,82.49L64.58,66.233l12.16-15.375
				c-2.658,1.709-12.838,2.986-25.021,2.986C39.541,53.844,29.359,52.567,26.703,50.858z"/>
			<path fill="#E1C2C2" d="M77.437,49.976c0-2.137-11.514-3.868-25.719-3.868c-14.199,0-25.713,1.731-25.713,3.868
				c0,0.304,0.256,0.597,0.697,0.882c2.656,1.709,12.838,2.986,25.016,2.986c12.184,0,22.363-1.276,25.021-2.986
				C77.179,50.573,77.437,50.28,77.437,49.976z"/>
		</g>
	</g>
	<path fill-rule="evenodd" clip-rule="evenodd" fill="#231F1A" d="M26.562,137.516"/>
</g>
</svg>
