<svg xmlns="http://www.w3.org/2000/svg" xmlns:xlink="http://www.w3.org/1999/xlink" version="1.1" id="Calque_1" x="0" y="0" width="165.75" height="201.1" viewBox="0 0 165.75 201.1" enable-background="new 0 0 165.745 201.104" xml:space="preserve">
  <rect x="72.47" y="35.96" fill-rule="evenodd" clip-rule="evenodd" fill="#44C7AF" width="2.62" height="152.55"/>
  <rect x="72.68" y="-28.15" transform="matrix(-0.3206 -0.9472 0.9472 -0.3206 63.3695 117.3699)" fill-rule="evenodd" clip-rule="evenodd" fill="#44C7AF" width="2.2" height="128.21"/>
  <path fill-rule="evenodd" clip-rule="evenodd" fill="#7D6B67" d="M13.06 59.57c1.68 0 3.05-1.37 3.05-3.05s-1.37-3.05-3.05-3.05c-1.68 0-3.05 1.37-3.05 3.05S11.38 59.57 13.06 59.57z"/>
  <path fill-rule="evenodd" clip-rule="evenodd" fill="#7D6B67" d="M73.78 39.01c1.68 0 3.05-1.37 3.05-3.05s-1.37-3.05-3.05-3.05 -3.05 1.37-3.05 3.05S72.1 39.01 73.78 39.01z"/>
  <path fill-rule="evenodd" clip-rule="evenodd" fill="#7D6B67" d="M141.29 23.75c4.84 2.61 10.28 10.85 13.62 21.42l-20.01 6.33c-3.34-10.57-3.63-20.44-1.16-25.36L141.29 23.75z"/>
  <rect x="134.78" y="15.17" transform="matrix(-0.9535 0.3015 -0.3015 -0.9535 271.7615 -1.602)" fill-rule="evenodd" clip-rule="evenodd" fill="#9C9A94" width="2.44" height="10.01"/>
  <rect x="59.36" y="188.51" fill-rule="evenodd" clip-rule="evenodd" fill="#7D6B67" width="28.83" height="4.19"/>
  <rect x="64.08" y="184.32" fill-rule="evenodd" clip-rule="evenodd" fill="#7D6B67" width="19.4" height="4.19"/>
  <path fill-rule="evenodd" clip-rule="evenodd" fill="#7D6B67" d="M134.5 18.45c1.68 0 3.05-1.37 3.05-3.05s-1.37-3.05-3.05-3.05c-1.68 0-3.05 1.37-3.05 3.05S132.82 18.45 134.5 18.45z"/>
</svg>
