<svg xmlns="http://www.w3.org/2000/svg" xmlns:xlink="http://www.w3.org/1999/xlink" version="1.1" id="Calque_1" x="0" y="0" width="172" height="201" viewBox="0 0 172 201" enable-background="new 0 0 172 201" xml:space="preserve">
  <ellipse fill="#231F20" cx="121.45" cy="28.75" rx="16.93" ry="17.75"/>
  <ellipse fill="#231F20" cx="24.28" cy="47.95" rx="19.15" ry="20.08"/>
  <path fill="#E6E7E8" d="M31.33 162.73c10.29-1.79 5.69-14.28-3.02-13.53C18.4 150.06 22.49 164.27 31.33 162.73z"/>
  <path fill="#D1D3D4" d="M112.26 113.97c10.05-7.84 34.73 0.99 29.51 15.97C134.48 150.85 96.32 126.41 112.26 113.97z"/>
  <path fill="#231F20" d="M32.92 156.64c5.03 21.25 25.31 25.67 44.02 25.01 15.44-0.55 38.48-0.24 49.36-13.87 12.62-15.8 7.61-46.05-9.57-56.34 -16.11-9.66-43.19-8.81-61.4-7.11C33.26 106.38 28.67 138.68 32.92 156.64z"/>
  <circle fill="#E6E7E8" cx="98.47" cy="158.8" r="2.29"/>
  <path fill="#E6E7E8" d="M64.19 172.93c3.58 16.49-18.34 14.88-26.28 6.21 -7.44-8.11-8.35-22.23 4.53-23.48C53.6 154.58 61.89 162.33 64.19 172.93z"/>
  <path fill="#E6E7E8" d="M138.79 170.63c-4.81 12.53-24.27 12-26.59-1.97C109.03 149.49 147.2 148.73 138.79 170.63z"/>
  <path fill="#ABD055" d="M116.23 121.09c-4.78 4.34-5.52 12.3-10.91 15.56 3.6 0.04 7.2 0.23 10.8 0.5 0.1-0.1 0.24-0.19 0.42-0.22 0.15-0.03 0.29-0.06 0.44-0.1 3.14-11.67 16.35-13.72 26.54-15.84 0.8-0.17 1.47 1 0.73 1.51 -4.33 3.04-7.92 6.97-12.19 10.09 -3.26 2.39-6.96 3.92-10.8 5 0.42 0.05 0.84 0.08 1.26 0.12 4.53 0.46 8.93 1.4 13.17 2.94 1.95-8.62 11.93-12.56 19.76-14.12 0.93-0.18 1.26 0.92 0.73 1.52 -5.23 5.88-9.33 11.77-16.93 14.07 2.66 1.23 4.9 2.96 7.08 4.76 0.06-0.19 0.19-0.35 0.41-0.47 4.33-2.19 8.98-5.08 13.74-6.17 0.62-0.14 1.24 0.55 0.98 1.15 -1.87 4.34-5.9 7.12-10.42 7.77 3.92 2.38 7.14 7.1 8.7 10.96 0.3 0.72-0.31 1.44-1.07 1.2 -6.49-1.99-10.66-5.25-12.46-11.97 -0.06-0.24-0.02-0.45 0.08-0.61 -2.52-2.18-5.25-3.86-8.27-5.29 2.28 6.22 2 12.38 0.51 18.89 -0.19 0.84-1.25 0.63-1.6 0.1 -3.77-5.7-4.78-13.94-1.47-20.09 -4.78-1.84-9.91-2.61-15.02-3.07 7.36 5.6 10.82 14.39 11.65 23.6 0.08 0.88-0.87 1.35-1.51 0.73 -7.23-6.98-12.96-14.28-13.01-24.2 -0.19-0.12-0.38-0.26-0.58-0.37 -0.01-0.01-0.02-0.02-0.03-0.03 -4.4-0.32-8.81-0.53-13.22-0.56 7.38 4.75 11.51 14.73 12.96 22.88 0.12 0.69-0.74 1.4-1.35 0.89 -4.69-4-11.62-6.51-14.49-12.31 -1.51-3.08-3.13-7.82-1.98-11.4 -0.49 0.01-0.98 0.02-1.47 0.04 -3.34 0.12-6.63 0.32-9.95 0.76 -1.2 0.16-2.4 0.25-3.55 0.01 0.24-0.48 0.4-1.04 0.47-1.61 1.98 0.47 4.57-0.4 6.46-0.6 2.29-0.24 4.64-0.29 6.98-0.34 0.42-8.22 10.91-14.19 17.48-17.09C116.18 119.25 116.97 120.42 116.23 121.09z"/>
  <path fill="#E6E7E8" d="M94.14 139.13c0.39 24.06-35.73 10.91-42.61-1.53 -7.3-13.19 2.73-24.06 15.84-20.71C79.13 119.89 93.91 125.12 94.14 139.13z"/>
  <path fill="#E6E7E8" d="M58.61 16.24c0 0 67.5-23.86 82.05 46.55S31.26 137.85 20.2 84.32C9.15 30.78 58.61 16.24 58.61 16.24z"/>
  <path fill="#E6E7E8" d="M86.85 87.25c0 10.31-11.17 17.15-20.35 17.15s-16.06-5.83-16.06-16.14c0-10.31 12.28-21.69 21.45-21.69C81.07 66.58 86.85 76.95 86.85 87.25z"/>
  <path fill="#231F20" d="M86.85 87.25c0 10.31-11.17 17.15-20.35 17.15s-16.06-5.83-16.06-16.14c0-10.31 12.28-21.69 21.45-21.69C81.07 66.58 86.85 76.95 86.85 87.25z"/>
  <path fill="#231F20" d="M106.09 74.31c-0.85 8.04 7.3 14.3 14.46 15.05 7.16 0.76 13.01-3.23 13.86-11.27 0.85-8.04-7.79-17.93-14.95-18.69C112.3 58.65 106.94 66.27 106.09 74.31z"/>
  <circle fill="#E6E7E8" cx="120.58" cy="79.67" r="3.2"/>
  <circle fill="#E6E7E8" cx="75.63" cy="89.27" r="3.2"/>
  <ellipse transform="matrix(0.9866 -0.1633 0.1633 0.9866 -14.2903 18.0823)" fill="#231F20" cx="102.84" cy="95.96" rx="4.66" ry="3.78"/>
  <path fill="#F67397" d="M113.35 103.77c2.06 0.63 5.15 3.32 4.51 5.72 -0.96 3.6-5.83 2.18-7.89 0.75 -0.98-0.68-1.86-1.54-2.71-2.41 2.3-1.16 4.34-2.82 5.78-4.16C113.12 103.7 113.23 103.73 113.35 103.77z"/>
  <path fill="none" stroke="#231F20" stroke-width="1.75" stroke-linecap="round" stroke-linejoin="round" stroke-miterlimit="10" d="M115.25 101.37c0 0-6.94 10.84-19.58 5.19"/>
</svg>
