<?xml version="1.0" encoding="utf-8"?>
<!-- Generator: Adobe Illustrator 16.0.0, SVG Export Plug-In . SVG Version: 6.00 Build 0)  -->
<!DOCTYPE svg PUBLIC "-//W3C//DTD SVG 1.1//EN" "http://www.w3.org/Graphics/SVG/1.1/DTD/svg11.dtd">
<svg version="1.1" id="Calque_1" xmlns="http://www.w3.org/2000/svg" xmlns:xlink="http://www.w3.org/1999/xlink" x="0px" y="0px"
	 width="141.5px" height="147px" viewBox="0 0 141.5 147" enable-background="new 0 0 141.5 147" xml:space="preserve">
<path fill="#C8C8C8" d="M129.378,140.02H13.973c-3.027,0-5.502-2.477-5.502-5.502V16.054c0-3.027,2.475-5.502,5.502-5.502h115.405
	c3.026,0,5.502,2.475,5.502,5.502v118.464C134.88,137.543,132.404,140.02,129.378,140.02"/>
<g opacity="0.18">
	<g>
		<defs>
			<rect id="SVGID_1_" x="7.925" y="10.551" width="126.41" height="129.469"/>
		</defs>
		<clipPath id="SVGID_2_">
			<use xlink:href="#SVGID_1_"  overflow="visible"/>
		</clipPath>
		<path clip-path="url(#SVGID_2_)" fill="#C8C8C8" d="M75.587,65.225l8.181,9.219l50.567-55.736v-3.663
			c0-2.472-2.022-4.494-4.493-4.494H12.419c-1.952,0-3.621,1.265-4.237,3.014l56.502,63.677L75.587,65.225z"/>
		<path clip-path="url(#SVGID_2_)" fill="#C8C8C8" d="M83.768,74.444l-8.18-9.219L64.685,77.242L9.086,138.523
			c0.823,0.914,2.013,1.496,3.334,1.496h117.422c2.472,0,4.494-2.022,4.494-4.494v-4.092L83.768,74.444z"/>
	</g>
</g>
<path fill="#E0E0E0" d="M108.395,117.496H34.955c-2.473,0-4.494-2.021-4.494-4.494V37.568c0-2.472,2.021-4.494,4.494-4.494h73.439
	c2.473,0,4.494,2.022,4.494,4.494v75.434C112.889,115.475,110.867,117.496,108.395,117.496"/>
<path fill="#FFFFFF" d="M108.395,117.496c0,0-20.373,0.051-50.931,0.127c-3.819,0.01-7.799,0.021-11.917,0.03
	c-2.059,0.005-4.152,0.011-6.279,0.017c-1.063,0.002-2.135,0.004-3.213,0.008c-0.533-0.006-1.09,0.021-1.638-0.03
	c-0.578-0.062-1.119-0.233-1.627-0.499c-1.011-0.527-1.826-1.438-2.229-2.525c-0.205-0.539-0.301-1.127-0.301-1.701
	c-0.002-0.559-0.003-1.119-0.004-1.681c-0.006-2.245-0.012-4.518-0.018-6.815c-0.012-4.596-0.023-9.291-0.035-14.066
	c-0.023-9.549-0.049-19.417-0.073-29.444c-0.013-5.014-0.024-10.067-0.038-15.14c-0.006-2.537-0.013-5.079-0.02-7.623v-0.477
	c-0.002-0.199,0.012-0.329,0.018-0.496c0.023-0.339,0.098-0.708,0.191-1.031c0.197-0.664,0.549-1.28,1.004-1.8
	c0.906-1.045,2.275-1.685,3.67-1.681c20.372,0.05,40.745,0.1,59.844,0.148c4.78,0.023,9.458-0.002,14.077,0.06
	c1.226,0.127,2.338,0.742,3.106,1.654c0.778,0.902,1.16,2.121,1.113,3.272c-0.006,2.246-0.012,4.464-0.017,6.653
	c-0.022,8.754-0.043,17.03-0.062,24.67c-0.039,15.279-0.072,28.012-0.094,36.924c-0.006,2.229-0.011,4.218-0.015,5.949
	c0,0.86,0.026,1.68-0.224,2.381c-0.234,0.699-0.609,1.271-1.02,1.705c-0.835,0.871-1.75,1.187-2.342,1.316
	c-0.305,0.053-0.536,0.085-0.693,0.085C108.475,117.492,108.395,117.496,108.395,117.496 M108.395,117.496
	c0,0,0.08-0.004,0.236-0.013c0.157,0,0.389-0.033,0.691-0.088c0.592-0.132,1.504-0.452,2.33-1.325
	c0.406-0.433,0.777-1.004,1.006-1.699c0.246-0.697,0.215-1.511,0.211-2.373c-0.006-1.731-0.01-3.721-0.016-5.949
	c-0.022-8.912-0.055-21.646-0.093-36.924c-0.019-7.64-0.04-15.916-0.062-24.67c-0.006-2.189-0.012-4.407-0.018-6.653
	c0.036-1.092-0.314-2.166-1.027-2.993c-0.694-0.826-1.736-1.38-2.803-1.486c-4.569-0.037-9.283,0.01-14.053,0.011
	C75.7,33.38,55.327,33.432,34.955,33.481c-1.162-0.008-2.305,0.519-3.073,1.392c-0.384,0.435-0.682,0.949-0.85,1.505
	c-0.081,0.289-0.136,0.544-0.162,0.841c-0.007,0.15-0.022,0.337-0.021,0.456v0.477c-0.007,2.544-0.014,5.086-0.02,7.623
	c-0.014,5.073-0.025,10.126-0.038,15.14c-0.024,10.027-0.05,19.895-0.073,29.444c-0.012,4.775-0.023,9.471-0.035,14.066
	c-0.006,2.298-0.012,4.57-0.018,6.815c0.031,1.127-0.131,2.259,0.264,3.245c0.364,0.996,1.109,1.838,2.036,2.328
	c0.458,0.246,0.978,0.408,1.479,0.464c0.533,0.056,1.062,0.029,1.609,0.037c1.078,0.003,2.149,0.006,3.213,0.008
	c2.127,0.007,4.221,0.011,6.279,0.017c4.118,0.01,8.098,0.02,11.917,0.029C88.021,117.445,108.395,117.496,108.395,117.496"/>
<g opacity="0.48">
	<g>
		<defs>
			<rect id="SVGID_3_" x="46.729" y="49.979" width="49.277" height="49.278"/>
		</defs>
		<clipPath id="SVGID_4_">
			<use xlink:href="#SVGID_3_"  overflow="visible"/>
		</clipPath>
		<path clip-path="url(#SVGID_4_)" fill="#949494" d="M96.006,74.618c0,13.608-11.03,24.639-24.639,24.639
			c-13.607,0-24.64-11.03-24.64-24.639s11.032-24.639,24.64-24.639C84.976,49.979,96.006,61.01,96.006,74.618"/>
	</g>
</g>
<path fill="#F8F8F8" d="M92.992,72.713h1.629c-0.982-11.26-9.92-20.238-21.162-21.279v1.746h-4.051v-1.771
	c-11.397,0.896-20.498,9.935-21.49,21.304h1.957v4.051h-1.963c0.959,11.404,10.074,20.48,21.496,21.378v-1.846h4.051v1.82
	c11.268-1.044,20.218-10.059,21.168-21.353h-1.635V72.713z"/>
<path fill="#FEED74" d="M73.459,55.965v-4.531c-0.721-0.067-1.451-0.106-2.189-0.106c-0.628,0-1.247,0.032-1.861,0.081v4.556H73.459
	z"/>
<path fill="#FEED74" d="M69.407,93.865v4.277c0.615,0.049,1.235,0.08,1.862,0.08c0.738,0,1.468-0.039,2.189-0.104v-4.253H69.407z"/>
<path d="M62.928,74.958c0,1.917-1.555,3.471-3.472,3.471s-3.472-1.554-3.472-3.471s1.555-3.471,3.472-3.471
	S62.928,73.041,62.928,74.958"/>
<path fill="#949494" d="M74.975,74.958c0,1.917-1.555,3.471-3.471,3.471c-1.918,0-3.473-1.554-3.473-3.471s1.555-3.471,3.473-3.471
	C73.42,71.487,74.975,73.041,74.975,74.958"/>
<path d="M87.021,74.958c0,1.917-1.554,3.471-3.471,3.471s-3.472-1.554-3.472-3.471s1.555-3.471,3.472-3.471
	S87.021,73.041,87.021,74.958"/>
<g opacity="0.09">
	<g>
		<defs>
			<rect id="SVGID_5_" x="47.975" y="51.307" width="42.56" height="43.222"/>
		</defs>
		<clipPath id="SVGID_6_">
			<use xlink:href="#SVGID_5_"  overflow="visible"/>
		</clipPath>
		<path clip-path="url(#SVGID_6_)" fill="#949494" d="M53.785,80.953c0-13.114,10.469-23.745,23.381-23.745
			c4.973,0,9.578,1.581,13.367,4.268c-4.226-6.146-11.236-10.17-19.178-10.17c-12.913,0-23.381,10.631-23.381,23.746
			c0,8.064,3.962,15.185,10.014,19.477C55.343,90.682,53.785,86.003,53.785,80.953"/>
	</g>
</g>
</svg>
